<svg xmlns="http://www.w3.org/2000/svg" viewBox="0 0 32 32" width="32" height="32">
  <!-- Background -->
  <rect width="32" height="32" fill="#1a1a2e"/>
  
  <!-- Pixel art palette -->
  <rect x="4" y="4" width="6" height="6" fill="#ff6b6b"/>
  <rect x="11" y="4" width="6" height="6" fill="#4ecdc4"/>
  <rect x="18" y="4" width="6" height="6" fill="#45b7d1"/>
  <rect x="25" y="4" width="3" height="6" fill="#96ceb4"/>
  
  <rect x="4" y="11" width="6" height="6" fill="#feca57"/>
  <rect x="11" y="11" width="6" height="6" fill="#ff9ff3"/>
  <rect x="18" y="11" width="6" height="6" fill="#54a0ff"/>
  <rect x="25" y="11" width="3" height="6" fill="#5f27cd"/>
  
  <rect x="4" y="18" width="6" height="6" fill="#00d2d3"/>
  <rect x="11" y="18" width="6" height="6" fill="#ff9f43"/>
  <rect x="18" y="18" width="6" height="6" fill="#10ac84"/>
  <rect x="25" y="18" width="3" height="6" fill="#ee5253"/>
  
  <rect x="4" y="25" width="6" height="3" fill="#c44569"/>
  <rect x="11" y="25" width="6" height="3" fill="#786fa6"/>
  <rect x="18" y="25" width="6" height="3" fill="#f8b500"/>
  <rect x="25" y="25" width="3" height="3" fill="#2e86de"/>
  
  <!-- Small pixel dots for detail -->
  <rect x="7" y="7" width="1" height="1" fill="#ffffff"/>
  <rect x="14" y="7" width="1" height="1" fill="#ffffff"/>
  <rect x="21" y="7" width="1" height="1" fill="#ffffff"/>
  <rect x="26" y="7" width="1" height="1" fill="#ffffff"/>
  
  <rect x="7" y="14" width="1" height="1" fill="#ffffff"/>
  <rect x="14" y="14" width="1" height="1" fill="#ffffff"/>
  <rect x="21" y="14" width="1" height="1" fill="#ffffff"/>
  <rect x="26" y="14" width="1" height="1" fill="#ffffff"/>
  
  <rect x="7" y="21" width="1" height="1" fill="#ffffff"/>
  <rect x="14" y="21" width="1" height="1" fill="#ffffff"/>
  <rect x="21" y="21" width="1" height="1" fill="#ffffff"/>
  <rect x="26" y="21" width="1" height="1" fill="#ffffff"/>
</svg>
